<?xml version="1.0" encoding="iso-8859-1"?>
<!-- Generator: Adobe Illustrator 19.0.0, SVG Export Plug-In . SVG Version: 6.00 Build 0)  -->
<svg version="1.1" id="Layer_1" xmlns="http://www.w3.org/2000/svg" xmlns:xlink="http://www.w3.org/1999/xlink" x="0px" y="0px"
	 viewBox="0 0 495 495" style="enable-background:new 0 0 495 495;" xml:space="preserve">
<g>
	<path style="fill:#00E7F0;" d="M247.5,310.584h225.285c-4.603-52.865-27.392-101.957-65.36-139.925
		c-37.968-37.968-87.061-60.758-139.925-65.36V74.416h-40v30.883c6.614-0.576,13.283-0.883,20-0.883V310.584z"/>
	<path style="fill:#44FFE8;" d="M247.5,104.416c-6.717,0-13.386,0.307-20,0.883c-52.864,4.602-101.957,27.392-139.925,65.36
		c-37.968,37.968-60.757,87.06-65.36,139.925H247.5V104.416z"/>
	<polygon style="fill:#EBE5DD;" points="44.161,350.584 64.269,420.584 247.5,420.584 247.5,350.584 	"/>
	<polygon style="fill:#D9CCBC;" points="247.5,420.584 431.23,420.584 450.925,350.584 247.5,350.584 	"/>
	<rect y="310.584" style="fill:#C0AB91;" width="495" height="40"/>
</g>
<g>
</g>
<g>
</g>
<g>
</g>
<g>
</g>
<g>
</g>
<g>
</g>
<g>
</g>
<g>
</g>
<g>
</g>
<g>
</g>
<g>
</g>
<g>
</g>
<g>
</g>
<g>
</g>
<g>
</g>
</svg>
