<?xml version="1.0" encoding="iso-8859-1"?>
<!-- Generator: Adobe Illustrator 19.0.0, SVG Export Plug-In . SVG Version: 6.00 Build 0)  -->
<svg version="1.1" id="Capa_1" xmlns="http://www.w3.org/2000/svg" xmlns:xlink="http://www.w3.org/1999/xlink" x="0px" y="0px"
	 viewBox="0 0 464 464" style="enable-background:new 0 0 464 464;" xml:space="preserve">
<g>
	<path style="fill:#B9BEC8;" d="M236.184,144.053c0.628,0.013,1.255,0.032,1.881,0.052c0.581,0.019,1.162,0.042,1.742,0.066
		c2.746,0.11,5.478,0.274,8.193,0.498V128h-16h-16v16.669c5.277-0.436,10.611-0.669,16-0.669
		C233.399,144,234.793,144.021,236.184,144.053z"/>
	<path style="fill:#DEE1E9;" d="M238.065,144.105c-0.627-0.02-1.253-0.039-1.881-0.052
		C236.812,144.067,237.439,144.084,238.065,144.105z"/>
	<path style="fill:#DEE1E9;" d="M258.839,145.907C189.346,158.241,134.976,230.377,129.144,320h30.853c0.001,0,0.002,0,0.004,0
		h263.331C415.635,226.726,341.274,152.365,248,144.669c-2.715-0.224-5.447-0.388-8.193-0.498
		C246.236,144.441,252.583,145.031,258.839,145.907z"/>
	<path style="fill:#CACDD2;" d="M258.839,145.907c-6.255-0.876-12.602-1.466-19.032-1.737c-0.58-0.024-1.16-0.047-1.742-0.066
		c-0.626-0.021-1.253-0.038-1.881-0.052C234.793,144.021,233.399,144,232,144c-5.389,0-10.723,0.233-16,0.669
		C122.726,152.365,48.365,226.726,40.669,320h88.475C134.976,230.377,189.346,158.241,258.839,145.907z"/>
	<path style="fill:#CACDD2;" d="M224,120c0-4.418,3.582-8,8-8h-24c-4.418,0-8,3.582-8,8s3.582,8,8,8h8h16
		C227.582,128,224,124.418,224,120z"/>
	<path style="fill:#DEE1E9;" d="M224,120c0,4.418,3.582,8,8,8h16h8l0,0c4.418,0,8-3.582,8-8s-3.582-8-8-8l0,0h-24
		C227.582,112,224,115.582,224,120z"/>
	<path style="fill:#AAAFB9;" d="M463.371,347.114c-0.202,0.479-0.45,0.933-0.738,1.359
		C462.921,348.047,463.169,347.593,463.371,347.114z"/>
	<path style="fill:#AAAFB9;" d="M457.612,351.837c-0.521,0.107-1.06,0.163-1.612,0.163C456.552,352,457.092,351.944,457.612,351.837
		z"/>
	<path style="fill:#AAAFB9;" d="M459.813,351.034c-0.453,0.246-0.933,0.45-1.434,0.606
		C458.88,351.484,459.36,351.281,459.813,351.034z"/>
	<path style="fill:#AAAFB9;" d="M176,344L176,344c0-4.416,3.578-7.996,7.993-8H40c-0.002,0-0.005,0-0.007,0H8c-4.418,0-8,3.582-8,8
		v0c0,4.418,3.582,8,8,8h176C179.582,352,176,348.418,176,344z"/>
	<path style="fill:#AAAFB9;" d="M462.634,339.527c0.287,0.426,0.535,0.88,0.738,1.359
		C463.169,340.407,462.921,339.953,462.634,339.527z"/>
	<path style="fill:#AAAFB9;" d="M458.379,336.359c0.501,0.156,0.981,0.359,1.434,0.606
		C459.36,336.719,458.88,336.515,458.379,336.359z"/>
	<path style="fill:#AAAFB9;" d="M456,336c0.552,0,1.092,0.056,1.612,0.163C457.092,336.056,456.552,336,456,336z"/>
	<path style="fill:#B9BEC8;" d="M463.371,340.886c-0.202-0.479-0.45-0.933-0.738-1.359c-0.719-1.064-1.687-1.946-2.821-2.562
		c-0.453-0.246-0.933-0.45-1.434-0.606c-0.25-0.078-0.506-0.144-0.767-0.197c-0.521-0.107-1.06-0.163-1.612-0.163h-31.993
		c4.415-0.004,7.993-3.584,7.993-8v0c0,4.418-3.582,8-8,8H160c-4.418,0-8-3.582-8-8v0c0-4.417,3.58-7.998,7.996-8h-30.853H40.669H40
		c-4.418,0-8,3.582-8,8v0c0,4.416,3.578,7.996,7.993,8c0.002,0,0.005,0,0.007,0h143.993c-4.415,0.004-7.993,3.584-7.993,8v0
		c0,4.418,3.582,8,8,8h272c0.552,0,1.092-0.056,1.612-0.163c0.26-0.053,0.516-0.119,0.767-0.197c0.501-0.156,0.981-0.36,1.434-0.606
		c1.134-0.616,2.102-1.498,2.821-2.562c0.287-0.426,0.535-0.88,0.738-1.359c0.405-0.957,0.629-2.01,0.629-3.114v0
		C464,342.895,463.776,341.843,463.371,340.886z"/>
	<path style="fill:#CACDD2;" d="M159.996,320c-4.417,0.002-7.996,3.583-7.996,8v0c0,4.418,3.582,8,8,8h264c4.418,0,8-3.582,8-8v0
		c0-4.418-3.582-8-8-8h-0.669H160C159.999,320,159.998,320,159.996,320z"/>
</g>
<g>
</g>
<g>
</g>
<g>
</g>
<g>
</g>
<g>
</g>
<g>
</g>
<g>
</g>
<g>
</g>
<g>
</g>
<g>
</g>
<g>
</g>
<g>
</g>
<g>
</g>
<g>
</g>
<g>
</g>
</svg>
