<?xml version="1.0" encoding="utf-8"?>
<!DOCTYPE svg PUBLIC "-//W3C//DTD SVG 1.1//EN" "http://www.w3.org/Graphics/SVG/1.1/DTD/svg11.dtd">
<svg xmlns="http://www.w3.org/2000/svg" xmlns:xlink="http://www.w3.org/1999/xlink" version="1.1" viewBox="0 0 512 512" enable-background="new 0 0 512 512" width="512px" height="512px">
  <g>
    <g>
      <path d="m396.6,319.3c-5.3,3.8-8.4,10-8.4,16.5v97.6l-72.7-68.9c-3.8-3.6-10.4-6.5-17.3-5.3-13.8,2.4-28,3.3-42.2,3.3-112.6,0-204.2-69.6-204.2-155.2 0-85.6 91.6-155.2 204.2-155.2 112.6,0 204.2,69.6 204.2,155.2-5.68434e-14,42.5-22.6,82.3-63.6,112zm-140.6-308c-135.1-1.06581e-14-245,87.9-245,196 0,108.1 109.9,196 245,196 12.9,0 25.8-0.8 38.6-2.4l100,94.8c3.9,3.7 14.1,6.7 22.1,3.9 7.7-2.7 12.4-10.6 12.4-18.8v-134.8c45.9-36.6 71.9-86.7 71.9-138.6 0-108.2-109.9-196.1-245-196.1v-1.06581e-14z" fill="#16570D"/>
      <path d="m256,76.4c-42,0-76.1,34.1-76.1,76.1 0,11.3 9.2,20.5 20.5,20.5 11.3,0 20.5-9.2 20.5-20.5 0-19.3 15.7-35.1 35.1-35.1 19.3,0 35.1,15.7 35.1,35.1 0,10.7-4.8,20.7-13.1,27.4-5.6,4.2-38.3,30.7-38.3,79.2 0,11.3 9.2,20.5 20.5,20.5 11.3,0 20.5-9.2 20.5-20.5 0-29.3 19.8-44.9 21.6-46.2 0.4-0.3 0.5-0.3 0.9-0.7 18.4-14.5 28.9-36.3 28.9-59.7 5.68434e-14-42-34.1-76.1-76.1-76.1z" fill="#16570D"/>
      <path d="m256,293.9c-12.1,0-21.9,9.8-21.9,21.9 0,12.1 9.8,21.9 21.9,21.9 12.1,0 21.9-9.8 21.9-21.9 0-12.1-9.8-21.9-21.9-21.9z" fill="#16570D"/>
    </g>
  </g>
</svg>
