<?xml version="1.0" encoding="iso-8859-1"?>
<!-- Generator: Adobe Illustrator 16.0.0, SVG Export Plug-In . SVG Version: 6.00 Build 0)  -->
<!DOCTYPE svg PUBLIC "-//W3C//DTD SVG 1.1//EN" "http://www.w3.org/Graphics/SVG/1.1/DTD/svg11.dtd">
<svg xmlns="http://www.w3.org/2000/svg" xmlns:xlink="http://www.w3.org/1999/xlink" version="1.1" id="Capa_1" x="0px" y="0px" width="512px" height="512px" viewBox="0 0 45.574 45.574" style="enable-background:new 0 0 45.574 45.574;" xml:space="preserve">
<g>
	<g>
		<path d="M9.399,10.263c-1.731,0-3.175,1.332-3.336,3.054L4.992,24.849c-0.018,0.282,0.083,0.576,0.277,0.783    c0.194,0.206,0.465,0.338,0.747,0.338h2.021l0.037,18.614c0,0.566,0.497,0.99,1.066,0.99h1.715c0.567,0,0.992-0.422,0.992-0.988    V29.117c0-0.258,0.229-0.428,0.488-0.428c0.259,0,0.47,0.17,0.47,0.428v15.47c0,0.565,0.48,0.987,1.046,0.987h1.716    c0.568,0,1.046-0.43,1.046-0.996L16.52,14.087l1.712-0.002v-3.796L9.399,10.263z" fill="#16570D"/>
		<circle cx="12.354" cy="4.611" r="4.241" fill="#16570D"/>
		<path d="M30.203,10.247l-2.072,0.007v3.797l2.082-0.008c0.604-0.002,1.109-0.49,1.109-1.095v-1.606    c0-0.292-0.123-0.57-0.329-0.776C30.788,10.36,30.494,10.246,30.203,10.247z" fill="#16570D"/>
		<path d="M20.211,18.031c0,0.924,0.754,1.684,1.678,1.684h2.607c0.923,0,1.654-0.76,1.654-1.684V9.816h-5.939V18.031z" fill="#16570D"/>
		<path d="M28.441,6.815H38.97c0.103,0,0.2-0.042,0.27-0.117c0.068-0.078,0.102-0.179,0.089-0.281    c-0.283-2.518-2.217-4.532-4.692-4.942c0.063-0.136,0.101-0.284,0.101-0.442c0-0.57-0.462-1.033-1.032-1.033    s-1.032,0.463-1.032,1.033c0,0.159,0.036,0.31,0.102,0.443c-2.476,0.411-4.408,2.427-4.692,4.943    c-0.012,0.102,0.021,0.201,0.091,0.278C28.24,6.773,28.337,6.815,28.441,6.815z" fill="#16570D"/>
		<path d="M39.688,7.453H27.721c-0.496,0-0.898,0.398-0.898,0.895s0.402,0.895,0.897,0.895h11.968c0.496,0,0.896-0.398,0.896-0.895    S40.184,7.453,39.688,7.453z" fill="#16570D"/>
	</g>
</g>
<g>
</g>
<g>
</g>
<g>
</g>
<g>
</g>
<g>
</g>
<g>
</g>
<g>
</g>
<g>
</g>
<g>
</g>
<g>
</g>
<g>
</g>
<g>
</g>
<g>
</g>
<g>
</g>
<g>
</g>
</svg>
